<mxfile host="Electron" modified="2024-04-26T22:20:08.846Z" agent="Mozilla/5.0 (Windows NT 10.0; Win64; x64) AppleWebKit/537.36 (KHTML, like Gecko) draw.io/24.2.5 Chrome/120.0.6099.109 Electron/28.1.0 Safari/537.36" etag="4A9m-gw3lr37W_PWqagB" version="24.2.5" type="device" pages="2">
  <diagram id="dknS6vVVcHCbHgST-ZYK" name="Plan">
    <mxGraphModel dx="954" dy="664" grid="1" gridSize="10" guides="1" tooltips="1" connect="1" arrows="1" fold="1" page="1" pageScale="1" pageWidth="2000" pageHeight="1169" math="0" shadow="0">
      <root>
        <mxCell id="0" />
        <mxCell id="1" parent="0" />
        <mxCell id="1wYj7g_pz6meRPkS-qwb-19" value="" style="rounded=0;whiteSpace=wrap;html=1;" parent="1" vertex="1">
          <mxGeometry x="520" y="320" width="600" height="240" as="geometry" />
        </mxCell>
        <mxCell id="1wYj7g_pz6meRPkS-qwb-1" value="" style="ellipse;whiteSpace=wrap;html=1;" parent="1" vertex="1">
          <mxGeometry x="110" y="290" width="310" height="250" as="geometry" />
        </mxCell>
        <mxCell id="1wYj7g_pz6meRPkS-qwb-4" value="" style="whiteSpace=wrap;html=1;aspect=fixed;" parent="1" vertex="1">
          <mxGeometry x="225" y="375" width="80" height="80" as="geometry" />
        </mxCell>
        <mxCell id="1wYj7g_pz6meRPkS-qwb-7" value="" style="shape=flexArrow;endArrow=classic;html=1;rounded=0;" parent="1" edge="1">
          <mxGeometry width="50" height="50" relative="1" as="geometry">
            <mxPoint x="264.5" y="360" as="sourcePoint" />
            <mxPoint x="264.5" y="300" as="targetPoint" />
          </mxGeometry>
        </mxCell>
        <mxCell id="1wYj7g_pz6meRPkS-qwb-10" value="" style="shape=flexArrow;endArrow=classic;html=1;rounded=0;" parent="1" edge="1">
          <mxGeometry width="50" height="50" relative="1" as="geometry">
            <mxPoint x="264.5" y="470" as="sourcePoint" />
            <mxPoint x="264.5" y="530" as="targetPoint" />
          </mxGeometry>
        </mxCell>
        <mxCell id="1wYj7g_pz6meRPkS-qwb-21" value="" style="triangle;whiteSpace=wrap;html=1;rotation=-90;" parent="1" vertex="1">
          <mxGeometry x="862.5" y="150" width="60" height="80" as="geometry" />
        </mxCell>
        <mxCell id="1wYj7g_pz6meRPkS-qwb-22" value="" style="endArrow=none;html=1;rounded=0;" parent="1" edge="1">
          <mxGeometry width="50" height="50" relative="1" as="geometry">
            <mxPoint x="850" y="155" as="sourcePoint" />
            <mxPoint x="935" y="155" as="targetPoint" />
          </mxGeometry>
        </mxCell>
        <mxCell id="1wYj7g_pz6meRPkS-qwb-23" value="" style="ellipse;whiteSpace=wrap;html=1;aspect=fixed;fillColor=#ffe6cc;strokeColor=#d79b00;" parent="1" vertex="1">
          <mxGeometry x="952.5" y="70" width="30" height="30" as="geometry" />
        </mxCell>
        <mxCell id="1wYj7g_pz6meRPkS-qwb-24" value="" style="endArrow=none;html=1;rounded=0;entryX=0.25;entryY=0;entryDx=0;entryDy=0;exitX=0.25;exitY=1;exitDx=0;exitDy=0;" parent="1" edge="1">
          <mxGeometry width="50" height="50" relative="1" as="geometry">
            <mxPoint x="720" y="560" as="sourcePoint" />
            <mxPoint x="720" y="320" as="targetPoint" />
          </mxGeometry>
        </mxCell>
        <mxCell id="1wYj7g_pz6meRPkS-qwb-25" value="" style="endArrow=none;html=1;rounded=0;entryX=0.25;entryY=0;entryDx=0;entryDy=0;exitX=0.25;exitY=1;exitDx=0;exitDy=0;" parent="1" edge="1">
          <mxGeometry width="50" height="50" relative="1" as="geometry">
            <mxPoint x="919.5" y="560" as="sourcePoint" />
            <mxPoint x="919.5" y="320" as="targetPoint" />
          </mxGeometry>
        </mxCell>
        <mxCell id="1wYj7g_pz6meRPkS-qwb-27" value="" style="endArrow=none;html=1;rounded=0;entryX=0.25;entryY=0;entryDx=0;entryDy=0;exitX=0.25;exitY=1;exitDx=0;exitDy=0;" parent="1" edge="1">
          <mxGeometry width="50" height="50" relative="1" as="geometry">
            <mxPoint x="1120" y="560" as="sourcePoint" />
            <mxPoint x="1120" y="320" as="targetPoint" />
          </mxGeometry>
        </mxCell>
        <mxCell id="1wYj7g_pz6meRPkS-qwb-28" value="" style="triangle;whiteSpace=wrap;html=1;rotation=-90;" parent="1" vertex="1">
          <mxGeometry x="582.5" y="430" width="60" height="80" as="geometry" />
        </mxCell>
        <mxCell id="1wYj7g_pz6meRPkS-qwb-29" value="" style="endArrow=none;html=1;rounded=0;" parent="1" edge="1">
          <mxGeometry width="50" height="50" relative="1" as="geometry">
            <mxPoint x="570" y="435" as="sourcePoint" />
            <mxPoint x="655" y="435" as="targetPoint" />
          </mxGeometry>
        </mxCell>
        <mxCell id="1wYj7g_pz6meRPkS-qwb-30" value="" style="ellipse;whiteSpace=wrap;html=1;aspect=fixed;fillColor=#ffe6cc;strokeColor=#d79b00;" parent="1" vertex="1">
          <mxGeometry x="672.5" y="350" width="30" height="30" as="geometry" />
        </mxCell>
        <mxCell id="1wYj7g_pz6meRPkS-qwb-31" value="" style="triangle;whiteSpace=wrap;html=1;rotation=-90;" parent="1" vertex="1">
          <mxGeometry x="782.5" y="430" width="60" height="80" as="geometry" />
        </mxCell>
        <mxCell id="1wYj7g_pz6meRPkS-qwb-33" value="" style="ellipse;whiteSpace=wrap;html=1;aspect=fixed;fillColor=#ffe6cc;strokeColor=#d79b00;" parent="1" vertex="1">
          <mxGeometry x="872.5" y="350" width="30" height="30" as="geometry" />
        </mxCell>
        <mxCell id="1wYj7g_pz6meRPkS-qwb-32" value="" style="endArrow=none;html=1;rounded=0;" parent="1" edge="1">
          <mxGeometry width="50" height="50" relative="1" as="geometry">
            <mxPoint x="770" y="430" as="sourcePoint" />
            <mxPoint x="855" y="450" as="targetPoint" />
          </mxGeometry>
        </mxCell>
        <mxCell id="1wYj7g_pz6meRPkS-qwb-34" value="" style="triangle;whiteSpace=wrap;html=1;rotation=-90;" parent="1" vertex="1">
          <mxGeometry x="995" y="430" width="60" height="80" as="geometry" />
        </mxCell>
        <mxCell id="1wYj7g_pz6meRPkS-qwb-35" value="" style="endArrow=none;html=1;rounded=0;" parent="1" edge="1">
          <mxGeometry width="50" height="50" relative="1" as="geometry">
            <mxPoint x="990" y="425" as="sourcePoint" />
            <mxPoint x="1060" y="455" as="targetPoint" />
          </mxGeometry>
        </mxCell>
        <mxCell id="1wYj7g_pz6meRPkS-qwb-36" value="" style="ellipse;whiteSpace=wrap;html=1;aspect=fixed;fillColor=#ffe6cc;strokeColor=#d79b00;" parent="1" vertex="1">
          <mxGeometry x="1070" y="350" width="30" height="30" as="geometry" />
        </mxCell>
        <mxCell id="1wYj7g_pz6meRPkS-qwb-37" value="" style="rounded=0;whiteSpace=wrap;html=1;" parent="1" vertex="1">
          <mxGeometry x="520" y="600" width="600" height="240" as="geometry" />
        </mxCell>
        <mxCell id="1wYj7g_pz6meRPkS-qwb-38" value="" style="endArrow=none;html=1;rounded=0;entryX=0.25;entryY=0;entryDx=0;entryDy=0;exitX=0.25;exitY=1;exitDx=0;exitDy=0;" parent="1" edge="1">
          <mxGeometry width="50" height="50" relative="1" as="geometry">
            <mxPoint x="720" y="840" as="sourcePoint" />
            <mxPoint x="720" y="600" as="targetPoint" />
          </mxGeometry>
        </mxCell>
        <mxCell id="1wYj7g_pz6meRPkS-qwb-39" value="" style="endArrow=none;html=1;rounded=0;entryX=0.25;entryY=0;entryDx=0;entryDy=0;exitX=0.25;exitY=1;exitDx=0;exitDy=0;" parent="1" edge="1">
          <mxGeometry width="50" height="50" relative="1" as="geometry">
            <mxPoint x="919.5" y="840" as="sourcePoint" />
            <mxPoint x="919.5" y="600" as="targetPoint" />
          </mxGeometry>
        </mxCell>
        <mxCell id="1wYj7g_pz6meRPkS-qwb-40" value="" style="endArrow=none;html=1;rounded=0;entryX=0.25;entryY=0;entryDx=0;entryDy=0;exitX=0.25;exitY=1;exitDx=0;exitDy=0;" parent="1" edge="1">
          <mxGeometry width="50" height="50" relative="1" as="geometry">
            <mxPoint x="1120" y="840" as="sourcePoint" />
            <mxPoint x="1120" y="600" as="targetPoint" />
          </mxGeometry>
        </mxCell>
        <mxCell id="1wYj7g_pz6meRPkS-qwb-50" value="" style="triangle;whiteSpace=wrap;html=1;rotation=-90;" parent="1" vertex="1">
          <mxGeometry x="597.5" y="720" width="60" height="80" as="geometry" />
        </mxCell>
        <mxCell id="1wYj7g_pz6meRPkS-qwb-51" value="" style="endArrow=none;html=1;rounded=0;" parent="1" edge="1">
          <mxGeometry width="50" height="50" relative="1" as="geometry">
            <mxPoint x="592.5" y="715" as="sourcePoint" />
            <mxPoint x="662.5" y="745" as="targetPoint" />
          </mxGeometry>
        </mxCell>
        <mxCell id="1wYj7g_pz6meRPkS-qwb-52" value="" style="ellipse;whiteSpace=wrap;html=1;aspect=fixed;fillColor=#ffe6cc;strokeColor=#d79b00;" parent="1" vertex="1">
          <mxGeometry x="540" y="640" width="30" height="30" as="geometry" />
        </mxCell>
        <mxCell id="1wYj7g_pz6meRPkS-qwb-53" value="" style="triangle;whiteSpace=wrap;html=1;rotation=-90;" parent="1" vertex="1">
          <mxGeometry x="782.5" y="720" width="60" height="80" as="geometry" />
        </mxCell>
        <mxCell id="1wYj7g_pz6meRPkS-qwb-54" value="" style="endArrow=none;html=1;rounded=0;" parent="1" edge="1">
          <mxGeometry width="50" height="50" relative="1" as="geometry">
            <mxPoint x="770" y="725" as="sourcePoint" />
            <mxPoint x="855" y="725" as="targetPoint" />
          </mxGeometry>
        </mxCell>
        <mxCell id="1wYj7g_pz6meRPkS-qwb-55" value="" style="ellipse;whiteSpace=wrap;html=1;aspect=fixed;fillColor=#ffe6cc;strokeColor=#d79b00;" parent="1" vertex="1">
          <mxGeometry x="740" y="640" width="30" height="30" as="geometry" />
        </mxCell>
        <mxCell id="1wYj7g_pz6meRPkS-qwb-56" value="" style="triangle;whiteSpace=wrap;html=1;rotation=-90;" parent="1" vertex="1">
          <mxGeometry x="995" y="720" width="60" height="80" as="geometry" />
        </mxCell>
        <mxCell id="1wYj7g_pz6meRPkS-qwb-57" value="" style="endArrow=none;html=1;rounded=0;" parent="1" edge="1">
          <mxGeometry width="50" height="50" relative="1" as="geometry">
            <mxPoint x="982.5" y="750" as="sourcePoint" />
            <mxPoint x="1062.5" y="720" as="targetPoint" />
          </mxGeometry>
        </mxCell>
        <mxCell id="1wYj7g_pz6meRPkS-qwb-58" value="" style="ellipse;whiteSpace=wrap;html=1;aspect=fixed;fillColor=#ffe6cc;strokeColor=#d79b00;" parent="1" vertex="1">
          <mxGeometry x="952.5" y="640" width="30" height="30" as="geometry" />
        </mxCell>
        <mxCell id="1wYj7g_pz6meRPkS-qwb-59" value="" style="endArrow=none;html=1;rounded=0;" parent="1" edge="1">
          <mxGeometry width="50" height="50" relative="1" as="geometry">
            <mxPoint x="60" y="1120" as="sourcePoint" />
            <mxPoint x="260" y="1120" as="targetPoint" />
          </mxGeometry>
        </mxCell>
        <mxCell id="1wYj7g_pz6meRPkS-qwb-60" value="" style="endArrow=none;html=1;rounded=0;" parent="1" edge="1">
          <mxGeometry width="50" height="50" relative="1" as="geometry">
            <mxPoint x="160" y="1040" as="sourcePoint" />
            <mxPoint x="160" y="1120" as="targetPoint" />
          </mxGeometry>
        </mxCell>
        <mxCell id="1wYj7g_pz6meRPkS-qwb-61" value="LDR PLAN" style="text;html=1;align=center;verticalAlign=middle;whiteSpace=wrap;rounded=0;fontSize=17;" parent="1" vertex="1">
          <mxGeometry x="295" y="880" width="370" height="30" as="geometry" />
        </mxCell>
        <mxCell id="1wYj7g_pz6meRPkS-qwb-62" value="" style="ellipse;whiteSpace=wrap;html=1;" parent="1" vertex="1">
          <mxGeometry x="80" y="1080" width="50" height="20" as="geometry" />
        </mxCell>
        <mxCell id="1wYj7g_pz6meRPkS-qwb-63" value="" style="endArrow=none;html=1;rounded=0;exitX=1;exitY=1;exitDx=0;exitDy=0;" parent="1" source="1wYj7g_pz6meRPkS-qwb-62" edge="1">
          <mxGeometry width="50" height="50" relative="1" as="geometry">
            <mxPoint x="520" y="1050" as="sourcePoint" />
            <mxPoint x="123" y="1120" as="targetPoint" />
          </mxGeometry>
        </mxCell>
        <mxCell id="1wYj7g_pz6meRPkS-qwb-64" value="" style="endArrow=none;html=1;rounded=0;exitX=0;exitY=1;exitDx=0;exitDy=0;" parent="1" source="1wYj7g_pz6meRPkS-qwb-62" edge="1">
          <mxGeometry width="50" height="50" relative="1" as="geometry">
            <mxPoint x="133" y="1107" as="sourcePoint" />
            <mxPoint x="87" y="1120" as="targetPoint" />
          </mxGeometry>
        </mxCell>
        <mxCell id="1wYj7g_pz6meRPkS-qwb-65" value="" style="ellipse;whiteSpace=wrap;html=1;" parent="1" vertex="1">
          <mxGeometry x="190" y="1080" width="50" height="20" as="geometry" />
        </mxCell>
        <mxCell id="1wYj7g_pz6meRPkS-qwb-66" value="" style="endArrow=none;html=1;rounded=0;exitX=1;exitY=1;exitDx=0;exitDy=0;" parent="1" source="1wYj7g_pz6meRPkS-qwb-65" edge="1">
          <mxGeometry width="50" height="50" relative="1" as="geometry">
            <mxPoint x="630" y="1050" as="sourcePoint" />
            <mxPoint x="233" y="1120" as="targetPoint" />
          </mxGeometry>
        </mxCell>
        <mxCell id="1wYj7g_pz6meRPkS-qwb-67" value="" style="endArrow=none;html=1;rounded=0;exitX=0;exitY=1;exitDx=0;exitDy=0;" parent="1" source="1wYj7g_pz6meRPkS-qwb-65" edge="1">
          <mxGeometry width="50" height="50" relative="1" as="geometry">
            <mxPoint x="243" y="1107" as="sourcePoint" />
            <mxPoint x="197" y="1120" as="targetPoint" />
          </mxGeometry>
        </mxCell>
        <mxCell id="1wYj7g_pz6meRPkS-qwb-68" value="" style="endArrow=none;html=1;rounded=0;" parent="1" edge="1">
          <mxGeometry width="50" height="50" relative="1" as="geometry">
            <mxPoint x="380" y="1120" as="sourcePoint" />
            <mxPoint x="580" y="1120" as="targetPoint" />
          </mxGeometry>
        </mxCell>
        <mxCell id="1wYj7g_pz6meRPkS-qwb-69" value="" style="endArrow=none;html=1;rounded=0;" parent="1" edge="1">
          <mxGeometry width="50" height="50" relative="1" as="geometry">
            <mxPoint x="480" y="1040" as="sourcePoint" />
            <mxPoint x="480" y="1120" as="targetPoint" />
          </mxGeometry>
        </mxCell>
        <mxCell id="1wYj7g_pz6meRPkS-qwb-70" value="" style="ellipse;whiteSpace=wrap;html=1;" parent="1" vertex="1">
          <mxGeometry x="400" y="1080" width="50" height="20" as="geometry" />
        </mxCell>
        <mxCell id="1wYj7g_pz6meRPkS-qwb-71" value="" style="endArrow=none;html=1;rounded=0;exitX=1;exitY=1;exitDx=0;exitDy=0;" parent="1" source="1wYj7g_pz6meRPkS-qwb-70" edge="1">
          <mxGeometry width="50" height="50" relative="1" as="geometry">
            <mxPoint x="840" y="1050" as="sourcePoint" />
            <mxPoint x="443" y="1120" as="targetPoint" />
          </mxGeometry>
        </mxCell>
        <mxCell id="1wYj7g_pz6meRPkS-qwb-72" value="" style="endArrow=none;html=1;rounded=0;exitX=0;exitY=1;exitDx=0;exitDy=0;" parent="1" source="1wYj7g_pz6meRPkS-qwb-70" edge="1">
          <mxGeometry width="50" height="50" relative="1" as="geometry">
            <mxPoint x="453" y="1107" as="sourcePoint" />
            <mxPoint x="407" y="1120" as="targetPoint" />
          </mxGeometry>
        </mxCell>
        <mxCell id="1wYj7g_pz6meRPkS-qwb-73" value="" style="ellipse;whiteSpace=wrap;html=1;" parent="1" vertex="1">
          <mxGeometry x="510" y="1080" width="50" height="20" as="geometry" />
        </mxCell>
        <mxCell id="1wYj7g_pz6meRPkS-qwb-74" value="" style="endArrow=none;html=1;rounded=0;exitX=1;exitY=1;exitDx=0;exitDy=0;" parent="1" source="1wYj7g_pz6meRPkS-qwb-73" edge="1">
          <mxGeometry width="50" height="50" relative="1" as="geometry">
            <mxPoint x="950" y="1050" as="sourcePoint" />
            <mxPoint x="553" y="1120" as="targetPoint" />
          </mxGeometry>
        </mxCell>
        <mxCell id="1wYj7g_pz6meRPkS-qwb-75" value="" style="endArrow=none;html=1;rounded=0;exitX=0;exitY=1;exitDx=0;exitDy=0;" parent="1" source="1wYj7g_pz6meRPkS-qwb-73" edge="1">
          <mxGeometry width="50" height="50" relative="1" as="geometry">
            <mxPoint x="563" y="1107" as="sourcePoint" />
            <mxPoint x="517" y="1120" as="targetPoint" />
          </mxGeometry>
        </mxCell>
        <mxCell id="1wYj7g_pz6meRPkS-qwb-76" value="" style="endArrow=none;html=1;rounded=0;" parent="1" edge="1">
          <mxGeometry width="50" height="50" relative="1" as="geometry">
            <mxPoint x="702.5" y="1120" as="sourcePoint" />
            <mxPoint x="902.5" y="1120" as="targetPoint" />
          </mxGeometry>
        </mxCell>
        <mxCell id="1wYj7g_pz6meRPkS-qwb-77" value="" style="endArrow=none;html=1;rounded=0;" parent="1" edge="1">
          <mxGeometry width="50" height="50" relative="1" as="geometry">
            <mxPoint x="802.5" y="1040" as="sourcePoint" />
            <mxPoint x="802.5" y="1120" as="targetPoint" />
          </mxGeometry>
        </mxCell>
        <mxCell id="1wYj7g_pz6meRPkS-qwb-78" value="" style="ellipse;whiteSpace=wrap;html=1;" parent="1" vertex="1">
          <mxGeometry x="722.5" y="1080" width="50" height="20" as="geometry" />
        </mxCell>
        <mxCell id="1wYj7g_pz6meRPkS-qwb-79" value="" style="endArrow=none;html=1;rounded=0;exitX=1;exitY=1;exitDx=0;exitDy=0;" parent="1" source="1wYj7g_pz6meRPkS-qwb-78" edge="1">
          <mxGeometry width="50" height="50" relative="1" as="geometry">
            <mxPoint x="1162.5" y="1050" as="sourcePoint" />
            <mxPoint x="765.5" y="1120" as="targetPoint" />
          </mxGeometry>
        </mxCell>
        <mxCell id="1wYj7g_pz6meRPkS-qwb-80" value="" style="endArrow=none;html=1;rounded=0;exitX=0;exitY=1;exitDx=0;exitDy=0;" parent="1" source="1wYj7g_pz6meRPkS-qwb-78" edge="1">
          <mxGeometry width="50" height="50" relative="1" as="geometry">
            <mxPoint x="775.5" y="1107" as="sourcePoint" />
            <mxPoint x="729.5" y="1120" as="targetPoint" />
          </mxGeometry>
        </mxCell>
        <mxCell id="1wYj7g_pz6meRPkS-qwb-81" value="" style="ellipse;whiteSpace=wrap;html=1;" parent="1" vertex="1">
          <mxGeometry x="832.5" y="1080" width="50" height="20" as="geometry" />
        </mxCell>
        <mxCell id="1wYj7g_pz6meRPkS-qwb-82" value="" style="endArrow=none;html=1;rounded=0;exitX=1;exitY=1;exitDx=0;exitDy=0;" parent="1" source="1wYj7g_pz6meRPkS-qwb-81" edge="1">
          <mxGeometry width="50" height="50" relative="1" as="geometry">
            <mxPoint x="1272.5" y="1050" as="sourcePoint" />
            <mxPoint x="875.5" y="1120" as="targetPoint" />
          </mxGeometry>
        </mxCell>
        <mxCell id="1wYj7g_pz6meRPkS-qwb-83" value="" style="endArrow=none;html=1;rounded=0;exitX=0;exitY=1;exitDx=0;exitDy=0;" parent="1" source="1wYj7g_pz6meRPkS-qwb-81" edge="1">
          <mxGeometry width="50" height="50" relative="1" as="geometry">
            <mxPoint x="885.5" y="1107" as="sourcePoint" />
            <mxPoint x="839.5" y="1120" as="targetPoint" />
          </mxGeometry>
        </mxCell>
        <mxCell id="1wYj7g_pz6meRPkS-qwb-84" value="" style="ellipse;whiteSpace=wrap;html=1;aspect=fixed;fillColor=#ffe6cc;strokeColor=#d79b00;" parent="1" vertex="1">
          <mxGeometry x="140" y="940" width="40" height="40" as="geometry" />
        </mxCell>
        <mxCell id="1wYj7g_pz6meRPkS-qwb-85" value="" style="ellipse;whiteSpace=wrap;html=1;aspect=fixed;fillColor=#ffe6cc;strokeColor=#d79b00;" parent="1" vertex="1">
          <mxGeometry x="360" y="940" width="40" height="40" as="geometry" />
        </mxCell>
        <mxCell id="1wYj7g_pz6meRPkS-qwb-86" value="" style="ellipse;whiteSpace=wrap;html=1;aspect=fixed;fillColor=#ffe6cc;strokeColor=#d79b00;" parent="1" vertex="1">
          <mxGeometry x="882.5" y="940" width="40" height="40" as="geometry" />
        </mxCell>
        <mxCell id="1wYj7g_pz6meRPkS-qwb-87" value="Event: LDRS_EQUALS" style="text;html=1;align=center;verticalAlign=middle;whiteSpace=wrap;rounded=0;" parent="1" vertex="1">
          <mxGeometry x="90" y="1130" width="140" height="30" as="geometry" />
        </mxCell>
        <mxCell id="z_wNYEGTQUqZngrz3DeC-1" value="Event:&amp;nbsp;&lt;span style=&quot;font-size: 11px; text-wrap: nowrap; background-color: rgb(3, 3, 3);&quot;&gt;LDR_SOUTH_BIGGEST&lt;/span&gt;" style="text;html=1;align=center;verticalAlign=middle;whiteSpace=wrap;rounded=0;" parent="1" vertex="1">
          <mxGeometry x="412.5" y="1130" width="135" height="30" as="geometry" />
        </mxCell>
        <mxCell id="1ZmBJKgYl4V7wZ7pSsIw-1" value="Event:&amp;nbsp;&lt;span style=&quot;font-size: 11px; text-wrap: nowrap; background-color: rgb(0, 0, 0);&quot;&gt;LDR_NORTH_BIGGEST&lt;/span&gt;" style="text;html=1;align=center;verticalAlign=middle;whiteSpace=wrap;rounded=0;" parent="1" vertex="1">
          <mxGeometry x="757.5" y="1130" width="90" height="30" as="geometry" />
        </mxCell>
        <mxCell id="jZAuARQzMBz2ShefG9W7-1" value="" style="endArrow=none;dashed=1;html=1;dashPattern=1 3;strokeWidth=2;rounded=0;" parent="1" edge="1">
          <mxGeometry width="50" height="50" relative="1" as="geometry">
            <mxPoint x="60" y="1100" as="sourcePoint" />
            <mxPoint x="140" y="970" as="targetPoint" />
          </mxGeometry>
        </mxCell>
        <mxCell id="jZAuARQzMBz2ShefG9W7-3" value="" style="endArrow=none;dashed=1;html=1;dashPattern=1 3;strokeWidth=2;rounded=0;" parent="1" edge="1">
          <mxGeometry width="50" height="50" relative="1" as="geometry">
            <mxPoint x="180" y="970" as="sourcePoint" />
            <mxPoint x="260" y="1100" as="targetPoint" />
          </mxGeometry>
        </mxCell>
        <mxCell id="jZAuARQzMBz2ShefG9W7-4" value="" style="endArrow=none;dashed=1;html=1;dashPattern=1 3;strokeWidth=2;rounded=0;" parent="1" edge="1">
          <mxGeometry width="50" height="50" relative="1" as="geometry">
            <mxPoint x="400" y="960" as="sourcePoint" />
            <mxPoint x="480" y="1090" as="targetPoint" />
          </mxGeometry>
        </mxCell>
        <mxCell id="jZAuARQzMBz2ShefG9W7-5" value="" style="endArrow=none;dashed=1;html=1;dashPattern=1 3;strokeWidth=2;rounded=0;" parent="1" edge="1">
          <mxGeometry width="50" height="50" relative="1" as="geometry">
            <mxPoint x="280" y="1090" as="sourcePoint" />
            <mxPoint x="360" y="960" as="targetPoint" />
          </mxGeometry>
        </mxCell>
        <mxCell id="jZAuARQzMBz2ShefG9W7-6" value="" style="endArrow=none;dashed=1;html=1;dashPattern=1 3;strokeWidth=2;rounded=0;" parent="1" edge="1">
          <mxGeometry width="50" height="50" relative="1" as="geometry">
            <mxPoint x="802.5" y="1090" as="sourcePoint" />
            <mxPoint x="882.5" y="960" as="targetPoint" />
          </mxGeometry>
        </mxCell>
        <mxCell id="jZAuARQzMBz2ShefG9W7-7" value="" style="endArrow=none;dashed=1;html=1;dashPattern=1 3;strokeWidth=2;rounded=0;" parent="1" edge="1">
          <mxGeometry width="50" height="50" relative="1" as="geometry">
            <mxPoint x="922.5" y="960" as="sourcePoint" />
            <mxPoint x="1002.5" y="1090" as="targetPoint" />
          </mxGeometry>
        </mxCell>
      </root>
    </mxGraphModel>
  </diagram>
  <diagram name="State Machine" id="Y02LzhgFGvge9OYAie8o">
    <mxGraphModel dx="1434" dy="844" grid="1" gridSize="10" guides="1" tooltips="1" connect="1" arrows="1" fold="1" page="1" pageScale="1" pageWidth="2000" pageHeight="1169" math="0" shadow="0">
      <root>
        <mxCell id="0" />
        <mxCell id="1" parent="0" />
        <mxCell id="0qxrMcnIwjIbNo3bIZ_l-1" value="SETUP" style="ellipse;whiteSpace=wrap;html=1;" parent="1" vertex="1">
          <mxGeometry x="80" y="240" width="120" height="120" as="geometry" />
        </mxCell>
        <mxCell id="0qxrMcnIwjIbNo3bIZ_l-19" style="edgeStyle=orthogonalEdgeStyle;rounded=0;orthogonalLoop=1;jettySize=auto;html=1;entryX=0.95;entryY=0.258;entryDx=0;entryDy=0;entryPerimeter=0;endArrow=classic;endFill=1;" parent="1" target="0qxrMcnIwjIbNo3bIZ_l-6" edge="1">
          <mxGeometry relative="1" as="geometry">
            <mxPoint x="650" y="330" as="targetPoint" />
            <mxPoint x="470" y="330" as="sourcePoint" />
            <Array as="points">
              <mxPoint x="470" y="333" />
              <mxPoint x="720" y="333" />
              <mxPoint x="720" y="271" />
            </Array>
          </mxGeometry>
        </mxCell>
        <mxCell id="0qxrMcnIwjIbNo3bIZ_l-21" value="LDRS_EQUALS" style="edgeLabel;html=1;align=center;verticalAlign=middle;resizable=0;points=[];" parent="0qxrMcnIwjIbNo3bIZ_l-19" connectable="0" vertex="1">
          <mxGeometry x="0.0267" y="1" relative="1" as="geometry">
            <mxPoint as="offset" />
          </mxGeometry>
        </mxCell>
        <mxCell id="0qxrMcnIwjIbNo3bIZ_l-6" value="BALANCE" style="ellipse;whiteSpace=wrap;html=1;" parent="1" vertex="1">
          <mxGeometry x="360" y="240" width="120" height="120" as="geometry" />
        </mxCell>
        <mxCell id="0qxrMcnIwjIbNo3bIZ_l-15" style="edgeStyle=orthogonalEdgeStyle;rounded=0;orthogonalLoop=1;jettySize=auto;html=1;exitX=0.5;exitY=0;exitDx=0;exitDy=0;entryX=0.5;entryY=0;entryDx=0;entryDy=0;" parent="1" source="0qxrMcnIwjIbNo3bIZ_l-7" target="0qxrMcnIwjIbNo3bIZ_l-6" edge="1">
          <mxGeometry relative="1" as="geometry">
            <Array as="points">
              <mxPoint x="850" y="70" />
              <mxPoint x="420" y="70" />
            </Array>
          </mxGeometry>
        </mxCell>
        <mxCell id="0qxrMcnIwjIbNo3bIZ_l-16" value="LDRS_EQUALS" style="edgeLabel;html=1;align=center;verticalAlign=middle;resizable=0;points=[];" parent="0qxrMcnIwjIbNo3bIZ_l-15" connectable="0" vertex="1">
          <mxGeometry x="-0.3452" y="-4" relative="1" as="geometry">
            <mxPoint y="4" as="offset" />
          </mxGeometry>
        </mxCell>
        <mxCell id="afCCTu1NXVBNrQbe_EKk-3" style="edgeStyle=orthogonalEdgeStyle;rounded=0;orthogonalLoop=1;jettySize=auto;html=1;exitX=0;exitY=1;exitDx=0;exitDy=0;entryX=0;entryY=0;entryDx=0;entryDy=0;" edge="1" parent="1" source="0qxrMcnIwjIbNo3bIZ_l-7" target="0qxrMcnIwjIbNo3bIZ_l-10">
          <mxGeometry relative="1" as="geometry" />
        </mxCell>
        <mxCell id="afCCTu1NXVBNrQbe_EKk-6" value="LDR_NORTH_BIGGEST" style="edgeLabel;html=1;align=center;verticalAlign=middle;resizable=0;points=[];" vertex="1" connectable="0" parent="afCCTu1NXVBNrQbe_EKk-3">
          <mxGeometry x="0.2041" relative="1" as="geometry">
            <mxPoint as="offset" />
          </mxGeometry>
        </mxCell>
        <mxCell id="0qxrMcnIwjIbNo3bIZ_l-7" value="GO_SOUTH" style="ellipse;whiteSpace=wrap;html=1;" parent="1" vertex="1">
          <mxGeometry x="790" y="90" width="120" height="120" as="geometry" />
        </mxCell>
        <mxCell id="0qxrMcnIwjIbNo3bIZ_l-9" value="" style="endArrow=classic;html=1;rounded=0;exitX=1;exitY=0;exitDx=0;exitDy=0;entryX=0;entryY=0.5;entryDx=0;entryDy=0;endFill=1;" parent="1" source="0qxrMcnIwjIbNo3bIZ_l-6" target="0qxrMcnIwjIbNo3bIZ_l-7" edge="1">
          <mxGeometry width="50" height="50" relative="1" as="geometry">
            <mxPoint x="700" y="410" as="sourcePoint" />
            <mxPoint x="750" y="360" as="targetPoint" />
          </mxGeometry>
        </mxCell>
        <mxCell id="0qxrMcnIwjIbNo3bIZ_l-13" value="LDR_SOUTH_BIGGEST" style="edgeLabel;html=1;align=center;verticalAlign=middle;resizable=0;points=[];" parent="0qxrMcnIwjIbNo3bIZ_l-9" connectable="0" vertex="1">
          <mxGeometry x="0.1523" relative="1" as="geometry">
            <mxPoint as="offset" />
          </mxGeometry>
        </mxCell>
        <mxCell id="afCCTu1NXVBNrQbe_EKk-4" style="edgeStyle=orthogonalEdgeStyle;rounded=0;orthogonalLoop=1;jettySize=auto;html=1;exitX=1;exitY=0;exitDx=0;exitDy=0;entryX=1;entryY=1;entryDx=0;entryDy=0;" edge="1" parent="1" source="0qxrMcnIwjIbNo3bIZ_l-10" target="0qxrMcnIwjIbNo3bIZ_l-7">
          <mxGeometry relative="1" as="geometry" />
        </mxCell>
        <mxCell id="afCCTu1NXVBNrQbe_EKk-7" value="LDR_SOUTH_BIGGEST" style="edgeLabel;html=1;align=center;verticalAlign=middle;resizable=0;points=[];" vertex="1" connectable="0" parent="afCCTu1NXVBNrQbe_EKk-4">
          <mxGeometry x="0.2722" y="-4" relative="1" as="geometry">
            <mxPoint as="offset" />
          </mxGeometry>
        </mxCell>
        <mxCell id="0qxrMcnIwjIbNo3bIZ_l-10" value="GO_NORTH" style="ellipse;whiteSpace=wrap;html=1;" parent="1" vertex="1">
          <mxGeometry x="790" y="410" width="120" height="120" as="geometry" />
        </mxCell>
        <mxCell id="0qxrMcnIwjIbNo3bIZ_l-11" value="" style="endArrow=classic;html=1;rounded=0;exitX=1;exitY=1;exitDx=0;exitDy=0;entryX=0;entryY=0.5;entryDx=0;entryDy=0;endFill=1;" parent="1" source="0qxrMcnIwjIbNo3bIZ_l-6" target="0qxrMcnIwjIbNo3bIZ_l-10" edge="1">
          <mxGeometry width="50" height="50" relative="1" as="geometry">
            <mxPoint x="472" y="268" as="sourcePoint" />
            <mxPoint x="668" y="192" as="targetPoint" />
          </mxGeometry>
        </mxCell>
        <mxCell id="0qxrMcnIwjIbNo3bIZ_l-14" value="LDR_NORTH_BIGGEST" style="edgeLabel;html=1;align=center;verticalAlign=middle;resizable=0;points=[];" parent="0qxrMcnIwjIbNo3bIZ_l-11" connectable="0" vertex="1">
          <mxGeometry x="0.1163" y="2" relative="1" as="geometry">
            <mxPoint as="offset" />
          </mxGeometry>
        </mxCell>
        <mxCell id="0qxrMcnIwjIbNo3bIZ_l-12" value="" style="endArrow=classic;html=1;rounded=0;exitX=1;exitY=0.5;exitDx=0;exitDy=0;entryX=0;entryY=0.5;entryDx=0;entryDy=0;endFill=1;" parent="1" source="0qxrMcnIwjIbNo3bIZ_l-1" target="0qxrMcnIwjIbNo3bIZ_l-6" edge="1">
          <mxGeometry width="50" height="50" relative="1" as="geometry">
            <mxPoint x="472" y="352" as="sourcePoint" />
            <mxPoint x="668" y="428" as="targetPoint" />
          </mxGeometry>
        </mxCell>
        <mxCell id="0qxrMcnIwjIbNo3bIZ_l-22" value="SET_SENSOR_FINISHED" style="edgeLabel;html=1;align=center;verticalAlign=middle;resizable=0;points=[];" parent="0qxrMcnIwjIbNo3bIZ_l-12" connectable="0" vertex="1">
          <mxGeometry x="-0.0375" y="2" relative="1" as="geometry">
            <mxPoint as="offset" />
          </mxGeometry>
        </mxCell>
        <mxCell id="0qxrMcnIwjIbNo3bIZ_l-17" style="edgeStyle=orthogonalEdgeStyle;rounded=0;orthogonalLoop=1;jettySize=auto;html=1;exitX=0.5;exitY=1;exitDx=0;exitDy=0;entryX=0.5;entryY=1;entryDx=0;entryDy=0;" parent="1" source="0qxrMcnIwjIbNo3bIZ_l-10" target="0qxrMcnIwjIbNo3bIZ_l-6" edge="1">
          <mxGeometry relative="1" as="geometry">
            <mxPoint x="860" y="100" as="sourcePoint" />
            <mxPoint x="430" y="250" as="targetPoint" />
            <Array as="points">
              <mxPoint x="850" y="540" />
              <mxPoint x="430" y="540" />
              <mxPoint x="430" y="360" />
            </Array>
          </mxGeometry>
        </mxCell>
        <mxCell id="0qxrMcnIwjIbNo3bIZ_l-18" value="LDRS_EQUALS" style="edgeLabel;html=1;align=center;verticalAlign=middle;resizable=0;points=[];" parent="0qxrMcnIwjIbNo3bIZ_l-17" connectable="0" vertex="1">
          <mxGeometry x="-0.3452" y="-4" relative="1" as="geometry">
            <mxPoint y="4" as="offset" />
          </mxGeometry>
        </mxCell>
        <mxCell id="0qxrMcnIwjIbNo3bIZ_l-23" value="&lt;div style=&quot;&quot;&gt;&lt;span style=&quot;background-color: initial;&quot;&gt;All states can receive a reboot event of a physical button&lt;/span&gt;&lt;/div&gt;" style="shape=note;strokeWidth=2;fontSize=14;size=20;whiteSpace=wrap;html=1;fillColor=#fff2cc;strokeColor=#d6b656;fontColor=#666600;align=center;" parent="1" vertex="1">
          <mxGeometry x="140" y="90" width="210" height="115" as="geometry" />
        </mxCell>
      </root>
    </mxGraphModel>
  </diagram>
</mxfile>
